<svg data-name="Layer 1" xmlns="http://www.w3.org/2000/svg" viewBox="0 0 127.8 23.5" width="128" height="24"><path d="M1.6 21.5A9.1 9.1 0 010 15.9V7.6a9.22 9.22 0 011.5-5.7C2.6.6 4.3 0 6.8 0s4.1.6 5.1 1.7a7.18 7.18 0 011.5 4.9v2H8.5V6.3a4.92 4.92 0 00-.3-2 1.44 1.44 0 00-1.4-.8c-.7 0-1.2.2-1.4.7a6.46 6.46 0 00-.3 2.2v10.7a4.14 4.14 0 00.4 2.1c.2.5.7.7 1.4.7s1.1-.2 1.3-.7a5.84 5.84 0 00.3-2.1v-2.4h4.9v2a7.65 7.65 0 01-1.5 5q-1.5 1.8-5.1 1.8c-2.4-.1-4.2-.7-5.2-2zM19.3.3H25l4.2 22.8h-4.6l-.8-4.8h-3.3l-.8 4.8H15zm4.1 15l-1.2-8.9-1.2 8.9zm9.3-11.2h-3.4V.3h11.9V4h-3.4v19.1h-5.1zM50.3.3h8.8v2.4h-5.7v7.5H58v2.3h-4.6v8.4h5.7v2.3h-8.9V.3zm11.4 0h2.2l6.5 15.1V.3H73v22.8h-2L64.4 7.5v15.6h-2.7zM76 .3h8.8v2.4h-5.7v7.5h4.6v2.3h-4.6v8.4h5.7v2.3H76zm11.4 0H92a8 8 0 015.1 1.4c1.1.9 1.6 2.5 1.6 4.6 0 2.9-.9 4.7-2.8 5.3L99.1 23H96l-3-10.7h-2.5V23h-3.2V.3zm4.4 9.8a4.37 4.37 0 002.9-.8q.9-.75.9-3a6.46 6.46 0 00-.3-2.2 2.54 2.54 0 00-1.1-1.2 4.56 4.56 0 00-2.2-.4h-1.4V10h1.2zm10.9 11.3a10.11 10.11 0 01-1.4-5.8V8a16.35 16.35 0 01.5-4.3 5.08 5.08 0 011.9-2.6 6.53 6.53 0 013.7-.9c2.1 0 3.6.5 4.5 1.6a7.65 7.65 0 011.4 5v.8h-3v-.7a14.73 14.73 0 00-.2-2.5 2 2 0 00-.8-1.3 3.09 3.09 0 00-1.9-.5 3 3 0 00-2 .6 2.26 2.26 0 00-.8 1.6 18.7 18.7 0 00-.2 2.7V16a9.08 9.08 0 00.6 3.8c.4.8 1.2 1.1 2.4 1.1a2.42 2.42 0 002.4-1.2 9.2 9.2 0 00.7-4v-1.6h-2.9v-2.3h5.8v11.3h-2l-.3-2.6a4.08 4.08 0 01-4.1 2.9 5 5 0 01-4.3-2zm17.1-6.3L114.9.4h3l3.5 11 3.4-11h3l-4.9 14.7v8h-3v-8z" fill="#111"/></svg>