<svg id="Layer_1" data-name="Layer 1" xmlns="http://www.w3.org/2000/svg" viewBox="0 0 16 16.01" width="16" height="16"><defs><style>.cls-1{fill:#231f20}</style></defs><path class="cls-1" d="M11.83 1A3.14 3.14 0 0115 4.18v7.65A3.13 3.13 0 0111.83 15H4.17A3.13 3.13 0 011 11.83V4.18A3.14 3.14 0 014.17 1h7.66m0-1H4.17A4.19 4.19 0 000 4.18v7.65A4.19 4.19 0 004.17 16h7.66A4.19 4.19 0 0016 11.83V4.18A4.19 4.19 0 0011.83 0z"/><path class="cls-1" d="M8 4.93A3.08 3.08 0 114.92 8 3.08 3.08 0 018 4.93m0-1A4.13 4.13 0 1012.12 8 4.13 4.13 0 008 3.88z"/><circle class="cls-1" cx="12.27" cy="3.74" r=".93"/></svg>