<svg data-name="Layer 1" xmlns="http://www.w3.org/2000/svg" viewBox="0 0 134.07 56.16" width="268" height="112"><path d="M123.12 5.76a15.2 15.2 0 014.5-4.6c1-.7 1.6-.7 2.2.6.8 1.9 1.5 3.9.9 6a2.29 2.29 0 00.4 2.1c.6.8 1.1 1.6 1.6 2.3a6.27 6.27 0 01.9 6.2 5.43 5.43 0 00-.2 3.1 7.58 7.58 0 010 3 3.75 3.75 0 01-2.7 3.2 5.21 5.21 0 00-3.2 2 1.05 1.05 0 01-.9.5c-1.2.2-4.2-2.5-4.2-3.7v-.6c.1-3.6-.1-3.9-3.4-5.4a4.39 4.39 0 01-1.8-1.2c-.6-.8-1.4-.7-2.3-.4s-1.4.9-1.3 1.9a44.14 44.14 0 01.3 7.3 1.88 1.88 0 00.2.8c3.1 4.5 4.3 9.8 5.8 14.9 1.2 3.9 3.4 6 7.4 6.3a12.5 12.5 0 011.9.3 4.16 4.16 0 013.4 3.2c.7 2.1.3 2.6-1.8 2.6h-6.5a3.24 3.24 0 01-2.3-.8 11.71 11.71 0 00-3.4-2 7.26 7.26 0 01-3.4-2.6 28.61 28.61 0 00-4-4.5c-2.8-2.9-5.8-5.7-8.4-8.7a11.38 11.38 0 01-3.2-7.6c0-.9-.2-1.3-1.2-.9a1.93 1.93 0 01-1 .3c-2.8 0-4.2 1.7-5.2 4.2-.9 2.1-2.1 4.1-3.2 6.2a10.39 10.39 0 00-1 4.2c0 2.4.6 3.2 2.8 4 1.4.5 2.7 1 3.4 2.4.8 1.6.6 2-1.1 2.1h-6.8a1.88 1.88 0 01-1.9-1.1l-1.8-3a6.05 6.05 0 01-.7-5.4 11.86 11.86 0 00.1-5.3 8.42 8.42 0 011.7-7c.6-.7.6-1-.4-1.2a50.06 50.06 0 01-11.8-4.1.1.1 0 01-.1-.1c-3.2-1.2-3.8-1-4.7 2.3-.8 2.8-1.6 5.6-2.2 8.5-.7 3.2.1 6.2 1.1 9.2.4 1.2 1.6 1.1 2.5 1.4 2 .6 3.7 1.4 4.5 3.5.7 1.6.6 1.8-1.1 1.8s-3.4-.1-5.2 0a6.64 6.64 0 01-4.2-1.4c-4.8-3.2-6.2-8.1-6.6-13.4-.2-3.3-2-5.9-4.1-8.4-.4-.5-.8-.7-1.4-.3a44.32 44.32 0 01-6.7 3 26.71 26.71 0 00-12.2 8.8 10.63 10.63 0 00-2.2 5.1c-.3 1.8.2 2.6 2 3.1s2.7 1.5 2.9 3.4c.1.8-.2 1.2-1 1.2h-8.1a1.65 1.65 0 01-1.3-.8 8.56 8.56 0 01-1.9-5.5 50.6 50.6 0 01.9-10.3 6.3 6.3 0 013.4-4.8c5.9-2.8 9-8.1 11.8-13.6.6-1.1.1-1.3-.9-1.2a16.47 16.47 0 00-7.7 3.2 70.62 70.62 0 00-8.3 7.1 16.67 16.67 0 01-10.3 4.9c-7.3.4-10.7-3.7-10.4-10.3a9.69 9.69 0 012.4-6.1 4.25 4.25 0 014.5-1.5c1.5.4 1.9 1.2 1.3 2.7-.3.6-.7 1.1-1 1.7a7.5 7.5 0 00-1 2c-1.1 3 .4 5.1 3.5 5.4 3.3.3 6-1.1 8.5-3.1a44.94 44.94 0 008-8.3 20.79 20.79 0 0114.4-8.1c2.3-.3 4.3-1.3 6.5-1.9a41.51 41.51 0 0112.7-1.8 13 13 0 005.8-1.1c4.9-2 10-2 15.1-1 4 .8 8 1.8 11.9 2.8a16.58 16.58 0 007-.2 67.79 67.79 0 0113.4-2 18.16 18.16 0 018.6 1.7c2 .9 2 .9 1.5 2.8z"/></svg>