<svg data-name="Layer 1" xmlns="http://www.w3.org/2000/svg" viewBox="0 0 70.04 97" width="140" height="194"><path d="M54.8 0h-.4A3.11 3.11 0 0053 1.6 15.81 15.81 0 0051.7 5a1.6 1.6 0 01-1.5 1.3A7.36 7.36 0 0045 10a33.89 33.89 0 00-1.8 3.9c-1.4 3.7-2.5 7.5-3.8 11.2-.7 1.9-.8 1.9-2.7 1.9-2.3 0-2.1-.4-2.1 2.1 0 .8.2 1.2 1.1 1.2.3 0 .7-.1.8.2s-.2.5-.4.7a8.42 8.42 0 01-4.3 2.4c-1.9.5-3.8.9-5.7 1.5-4.7 1.6-9.1 3.8-12.6 7.6a27.06 27.06 0 00-4.7 7.8c-3.8 8.7-5.6 17.8-7 27-.6 4.3-1.1 8.6-1.5 13C.2 92.7 0 94.8 0 97h33.3a2.74 2.74 0 00-.2-1.3 5 5 0 00-3.8-3.1c-.7-.2-.8-.4-.4-.9a11.39 11.39 0 001.6-3.1 92.65 92.65 0 003.1-14.8A31.67 31.67 0 0137 63a22.88 22.88 0 015.6-6.4c.8-.6.9-.6 1 .4.1.7.1 1.4.2 2.2a84.19 84.19 0 01-.2 14.2 67.57 67.57 0 00-.2 11A89.77 89.77 0 0045.6 97h13.3a5.32 5.32 0 00-4.2-4.4 9.76 9.76 0 00-3.8.2c-.6.1-.8 0-.9-.6a55.86 55.86 0 011-15.8c1.3-6 2.4-12.1 3.1-18.2a17.53 17.53 0 012.3-7c1.2-2.1 2.2-4.3 3.4-6.5a6 6 0 00.4-5.2 18.94 18.94 0 00-.9-2.1c-1-2-2-3.9-2.9-5.9-.5-1-.4-1.1.7-1.1 1.6 0 1.6 0 1.7-1.6v-.7c0-.7-.3-1.1-1-1h-1.5c-.7 0-.9-.3-.7-1a6.25 6.25 0 015.1-4.4 21 21 0 016.6.4 1 1 0 001.3-.6c.4-1 .8-2 1.3-3a.9.9 0 00-.1-1.1c-3.2-4.2-6.7-8-11.4-10.4a1.62 1.62 0 01-.9-1.1 22.53 22.53 0 00-1.3-4.2A2.91 2.91 0 0054.8 0z"/></svg>