<svg data-name="Layer 1" xmlns="http://www.w3.org/2000/svg" viewBox="0 0 454.05 188.36" width="67" height="28"><path d="M417.01 19.55a52.84 52.84 0 0115.38-15.59c3.37-2.24 5.51-2.24 7.3 1.86 2.86 6.53 5.11 13.06 3.06 20.28a7.55 7.55 0 001.43 7c1.89 2.54 3.57 5.23 5.32 7.87 4.28 6.45 6 13.25 3.13 20.82a18.27 18.27 0 00-.69 10.32 28.19 28.19 0 010 9.95c-.87 5.44-3.68 9.24-9.15 10.68a19.47 19.47 0 00-10.87 6.66 4.43 4.43 0 01-2.9 1.81c-4 .54-14.15-8.47-14.14-12.55 0-.67 0-1.33.05-2 .23-12.05-.49-13.22-11.55-18.05a15.11 15.11 0 01-6.13-4.16c-2.2-2.76-4.86-2.51-7.65-1.34s-4.7 3-4.32 6.48a216.78 216.78 0 011.18 24.44 5.25 5.25 0 00.79 2.83c10.49 15.11 14.44 32.88 19.67 50 4 13.06 11.51 20.16 25 21.11a56.31 56.31 0 016.41 1c6.05 1.12 9.67 4.93 11.45 10.61 2.21 7.08 1.11 8.59-6.26 8.64s-14.66 0-22 .05c-3 0-5.49-.54-7.71-2.73-3.27-3.21-7.54-4.86-11.65-6.68-4.5-2-8.68-4.51-11.37-8.67-3.75-5.83-8.85-10.36-13.63-15.22-9.57-9.74-19.49-19.15-28.54-29.4-6.52-7.38-10.79-15.58-10.71-25.62 0-3.15-.79-4.47-4-2.88a8.32 8.32 0 01-3.34 1c-9.53.15-14.2 5.85-17.57 14.06-3 7.21-7.2 13.89-10.77 20.86a32.24 32.24 0 00-3.91 14.83c0 7.92 1.87 10.76 9.33 13.42 4.62 1.65 9.07 3.38 11.6 8 2.86 5.25 2 6.86-3.85 6.92-7.66.08-15.33 0-23 .06a6.43 6.43 0 01-6.44-3.7c-1.89-3.51-4.16-6.82-6.26-10.23-3.48-5.65-4.89-11.42-2.53-18.06 2-5.78 1.12-12 .27-17.85-1.27-8.76.11-16.58 5.84-23.43 1.87-2.23 2.12-3.46-1.33-4.11-14-2.63-27.25-7.57-40.06-13.71l-.46-.2c-10.82-4.16-12.9-3.23-15.94 7.67-2.64 9.46-5.38 18.91-7.44 28.5-2.28 10.61.38 20.85 3.79 30.86 1.32 3.89 5.28 3.72 8.32 4.62 6.65 1.95 12.37 4.76 15.28 11.64 2.25 5.35 2 6.07-3.69 6.12-5.84 0-11.69-.29-17.49.1-5.53.37-9.65-1.75-14.15-4.76-16.3-10.88-20.92-27.13-22.23-45.22-.81-11.23-6.73-20-13.92-28.12-1.4-1.58-2.67-2.23-4.7-.94-7.09 4.5-15.08 7-22.87 9.93-16.31 6.3-30.56 15.56-41.31 29.63a37.08 37.08 0 00-7.55 17.2c-.9 6.05.79 8.6 6.64 10.33 6.46 1.9 9 5 9.76 11.56.31 2.77-.69 4.19-3.47 4.19q-13.74 0-27.49-.06c-2 0-3.33-1.2-4.54-2.69a29.72 29.72 0 01-6.6-18.48 171.09 171.09 0 013.13-34.76c1.27-7.09 4.61-12.91 11.36-16.09 20-9.44 30.48-27.13 39.91-45.77 1.9-3.76.22-4.33-3-4-9.79.87-18.19 5.22-26 10.73-10.15 7.07-19.27 15.4-28.28 23.84-9.87 9.2-21.08 15.61-34.87 16.58-23.42 1.64-35.16-11.86-34-34.31a32.24 32.24 0 018.22-20.5c4.05-4.45 9-6.88 15.2-5.08 5.17 1.5 6.51 4.1 4.37 8.95-.87 2-2.21 3.71-3.25 5.61a47.82 47.82 0 00-3.37 6.66c-3.56 10.02 1.24 17.16 11.83 18.09 11.24 1 20.38-3.73 28.87-10.38a162.71 162.71 0 0027.27-27.75c12.63-16.06 29-24.63 48.81-27.22 7.69-1 14.62-4.44 22-6.5 14-3.94 28.27-6.3 42.87-5.94a48.05 48.05 0 0019.83-3.61c16.51-6.73 33.77-6.7 51.1-3.22 13.54 2.73 26.94 6.12 40.38 9.3 7.6 1.8 15.94 1.16 23.7-.53 15-3.26 30-6.31 45.38-6.59a66.06 66.06 0 0129.18 5.71c6.48 2.94 6.49 2.92 4.54 9.32z"/></svg>