<svg xmlns="http://www.w3.org/2000/svg" xmlns:xlink="http://www.w3.org/1999/xlink"><defs><style>.cls-1{fill:#231f20}</style></defs><symbol id="icon__copyright" viewBox="0 0 26.95 34.09"><path d="M13.62 0h-.15L0 1.41v24.66l13.47 8 13.43-8h.05V1.41zM25 12.13l-11.5-6.8v-.1h-.08l-.09-.06v.11L1.92 12.12v-9l11.55-1.19L25 3.15v9zM13.41 6.79l11.51 6.71-4.48 2.64-7.09-4.22v1.41l5.9 3.52-.86.5-5-3v1.42l3.82 2.27-.78.53-3-1.79v1.42l1.85 1.09-1.8 1.08L2 13.62zM1.92 15.13l11.42 6.79v1l-7.93-4.69v1.42l8 4.8v1.07l-8-4.74v1.42l8 4.82 8.15-4.87V17L25 15v10l-11.53 6.85L1.92 25z"/></symbol><symbol id="icon__facebook"><path d="M7.05 19H2v-8.84H0V5.8h1.94a5.68 5.68 0 011.13-4.41A4.76 4.76 0 016.46 0H10v4.21H7.22A4.2 4.2 0 007 5.8h3v4.37H7.05zm-3.93-1h2.82V9.14h2.93V6.83H5.94v-.51c0-1.39 0-2.59.75-3.05l.14-.09h2.06V1h-2.4a3.54 3.54 0 00-2.57 1c-.77.84-1 2.26-.82 4.21l.07.57H1.11v2.36h2z"/></symbol><symbol id="icon__instagram" viewBox="0 0 16 16.01"><path class="cls-1" d="M11.83 1A3.14 3.14 0 0115 4.18v7.65A3.13 3.13 0 0111.83 15H4.17A3.13 3.13 0 011 11.83V4.18A3.14 3.14 0 014.17 1h7.66m0-1H4.17A4.19 4.19 0 000 4.18v7.65A4.19 4.19 0 004.17 16h7.66A4.19 4.19 0 0016 11.83V4.18A4.19 4.19 0 0011.83 0z"/><path class="cls-1" d="M8 4.93A3.08 3.08 0 114.92 8 3.08 3.08 0 018 4.93m0-1A4.13 4.13 0 1012.12 8 4.13 4.13 0 008 3.88z"/><circle class="cls-1" cx="12.27" cy="3.74" r=".93"/></symbol><symbol id="icon__mail" viewBox="0 0 17 13"><path d="M15.6 11.6H1.4V5.8H0V13h17V5.8h-1.4zM0 0v2.3l8.5 7.1L17 2.3V0zm15.6 1.6L8.5 7.5 1.4 1.6v-.2h14.2z"/></symbol><symbol id="icon__phone" viewBox="0 0 19.96 19.93"><path d="M17.91 9.41h-8.5v1.2h8.5l-2.1 2.1.9.9 3.1-3.1a.75.75 0 000-.9l-3.1-3.1-.9.9zm-9.8 10v-6.2a.65.65 0 00-.6-.6h-4.4a1.22 1.22 0 001.2 1.2h2.5v5h-3.7a1.79 1.79 0 01-1.9-1.7v-14a1.77 1.77 0 011.7-1.8h3.9v5h-2.4a1.22 1.22 0 00-1.2 1.2h4.4a.65.65 0 00.6-.6V.61a.86.86 0 00-.7-.6h-4.4a3 3 0 00-3.1 2.9v13.9a2.89 2.89 0 002.9 3.1h4.6a.5.5 0 00.6-.5z"/></symbol><symbol id="icon__vkontakte"><path d="M17.55 12a2.86 2.86 0 01-1.55-.48 7.15 7.15 0 01-1.31-1.17c-.32-.33-.86-.89-1.06-.89s-.35.7-.35 1.19a1.32 1.32 0 01-.34.92 1.59 1.59 0 01-.89.38h-1.39a8.16 8.16 0 01-5.44-2.3C2.52 7.1.21 2.2.11 2A1.06 1.06 0 01.22.86a1.45 1.45 0 011-.36H4.3a1.92 1.92 0 01.7.25 1.34 1.34 0 01.45.56 18 18 0 001.09 2c1 1.52 1.39 1.87 1.54 1.95a6.54 6.54 0 00.14-2.18 2.14 2.14 0 00-.19-1 1 1 0 00-.57-.22l-.53-.53c-.07-.5.47-.93.84-1.1A6.09 6.09 0 0110.08 0h.52a6.68 6.68 0 011.58.15c1.25.27 1.2 1.32 1.15 2.52v1.6a3.42 3.42 0 00.07 1 6.77 6.77 0 001.52-1.89A13.91 13.91 0 0016 1.24a1.14 1.14 0 011.17-.72L20.3.5h.28c.72 0 1.17.22 1.34.65s.13 1.26-1.72 3.5l-.72.86a5.33 5.33 0 00-.91 1.22 5.32 5.32 0 00.92.87 10.67 10.67 0 012.22 2.34 1.25 1.25 0 01.19 1.28 1.68 1.68 0 01-1.38.75h-2.78zm-3.89-3.69c.66 0 1.23.6 1.84 1.24a6.5 6.5 0 001.1 1 1.81 1.81 0 001 .32h2.87a1.18 1.18 0 00.39-.1.57.57 0 00-.07-.13 10.13 10.13 0 00-2-2.07C18 7.78 17.52 7.4 17.47 6.8s.36-1.09 1.18-2l.71-.85a8.13 8.13 0 001.51-2.25 2.92 2.92 0 00-.5 0h-3.38a16.33 16.33 0 01-1.2 2.3c-1.39 2.14-2 2.43-2.5 2.44a.79.79 0 01-.42-.12c-.73-.43-.71-1.39-.68-2.1v-1.6c0-1.28 0-1.29-.28-1.35a4.88 4.88 0 00-1.36-.12h-.51a9.09 9.09 0 00-1.4.08.86.86 0 01.19.19 2.82 2.82 0 01.44 1.67c.1 1.25 0 2.89-.74 3.28a1 1 0 01-.44.11c-.68 0-1.36-.68-2.51-2.49a16.6 16.6 0 01-1.16-2.2.2.2 0 00-.06-.07.73.73 0 00-.23-.09H1.18c.43.91 2.51 5 4.78 7.17a7.13 7.13 0 004.71 2H12a.53.53 0 00.2-.07v-.08c0-.2 0-2 1.16-2.31a1.35 1.35 0 01.3-.03z"/></symbol></svg>